<svg xmlns="http://www.w3.org/2000/svg" width="1200" height="720" viewBox="0 0 1200 720" role="img" aria-label="Research report preview">
  <rect width="1200" height="720" fill="#f5f7fa"/>
  <rect x="70" y="42" width="1060" height="636" rx="16" fill="#ffffff" stroke="#d9dee8"/>
  <text x="110" y="92" font-family="Segoe UI, Arial, sans-serif" font-size="30" font-weight="700" fill="#152238">Research Report</text>
  <text x="110" y="124" font-family="Segoe UI, Arial, sans-serif" font-size="16" fill="#5e6b78">Generated from planner DAG, external evidence, tool results, memory context and confidence scoring.</text>

  <rect x="110" y="160" width="720" height="76" rx="10" fill="#f4f7fb" stroke="#dbe2ea"/>
  <text x="132" y="192" font-family="Segoe UI, Arial, sans-serif" font-size="18" font-weight="700" fill="#243b53">核心结论</text>
  <text x="132" y="218" font-family="Segoe UI, Arial, sans-serif" font-size="15" fill="#52606d">用证据分级组织回答：哪些结论有外部来源支持，哪些仍是推断或待验证。</text>

  <rect x="110" y="260" width="315" height="180" rx="10" fill="#f0fbf5" stroke="#b7e4c7"/>
  <text x="132" y="294" font-family="Segoe UI, Arial, sans-serif" font-size="18" font-weight="700" fill="#147d4c">Evidence-backed</text>
  <text x="132" y="326" font-family="Segoe UI, Arial, sans-serif" font-size="14" fill="#334e68">• 官方文档</text>
  <text x="132" y="354" font-family="Segoe UI, Arial, sans-serif" font-size="14" fill="#334e68">• 论文检索</text>
  <text x="132" y="382" font-family="Segoe UI, Arial, sans-serif" font-size="14" fill="#334e68">• 可追踪 URL</text>

  <rect x="458" y="260" width="315" height="180" rx="10" fill="#fff8e8" stroke="#f1d48a"/>
  <text x="480" y="294" font-family="Segoe UI, Arial, sans-serif" font-size="18" font-weight="700" fill="#9a6500">Speculative</text>
  <text x="480" y="326" font-family="Segoe UI, Arial, sans-serif" font-size="14" fill="#334e68">• 模型推断</text>
  <text x="480" y="354" font-family="Segoe UI, Arial, sans-serif" font-size="14" fill="#334e68">• 需补充验证</text>
  <text x="480" y="382" font-family="Segoe UI, Arial, sans-serif" font-size="14" fill="#334e68">• 报告中显式标注</text>

  <rect x="806" y="260" width="240" height="180" rx="10" fill="#eef6ff" stroke="#bfd7ff"/>
  <text x="828" y="294" font-family="Segoe UI, Arial, sans-serif" font-size="18" font-weight="700" fill="#0b5cad">Confidence</text>
  <text x="828" y="360" font-family="Segoe UI, Arial, sans-serif" font-size="48" font-weight="700" fill="#0b5cad">0.56</text>
  <text x="828" y="392" font-family="Segoe UI, Arial, sans-serif" font-size="14" fill="#52606d">由证据等级、来源质量和工具覆盖综合估计</text>

  <text x="110" y="506" font-family="Segoe UI, Arial, sans-serif" font-size="21" font-weight="700" fill="#152238">报告结构</text>
  <rect x="110" y="530" width="936" height="18" rx="9" fill="#edf1f7"/>
  <rect x="110" y="530" width="180" height="18" rx="9" fill="#243b53"/>
  <rect x="306" y="530" width="190" height="18" rx="9" fill="#5b8def"/>
  <rect x="512" y="530" width="190" height="18" rx="9" fill="#22a06b"/>
  <rect x="718" y="530" width="150" height="18" rx="9" fill="#f59f00"/>
  <rect x="884" y="530" width="162" height="18" rx="9" fill="#7c5cff"/>
  <text x="110" y="590" font-family="Segoe UI, Arial, sans-serif" font-size="15" fill="#52606d">问题拆解</text>
  <text x="225" y="590" font-family="Segoe UI, Arial, sans-serif" font-size="15" fill="#52606d">证据来源</text>
  <text x="340" y="590" font-family="Segoe UI, Arial, sans-serif" font-size="15" fill="#52606d">方法流程</text>
  <text x="455" y="590" font-family="Segoe UI, Arial, sans-serif" font-size="15" fill="#52606d">风险检查</text>
  <text x="570" y="590" font-family="Segoe UI, Arial, sans-serif" font-size="15" fill="#52606d">参考来源</text>
</svg>
