<svg xmlns="http://www.w3.org/2000/svg" width="1200" height="720" viewBox="0 0 1200 720" role="img" aria-label="DomainResearch trace report preview">
  <rect width="1200" height="720" fill="#f5f7fb"/>
  <rect x="48" y="38" width="1104" height="644" rx="12" fill="#ffffff" stroke="#d8dee9"/>

  <text x="82" y="86" font-family="Segoe UI, Arial, sans-serif" font-size="30" font-weight="700" fill="#172033">DomainResearch Trace Report</text>
  <text x="82" y="118" font-family="Segoe UI, Arial, sans-serif" font-size="16" fill="#5f6b7a">Task DAG, domain adapter, tool calls, official evidence auto-fetch, evidence levels and wiki ingest in one run.</text>

  <rect x="82" y="150" width="190" height="88" rx="8" fill="#eef6ff" stroke="#bfd7ff"/>
  <text x="104" y="183" font-family="Segoe UI, Arial, sans-serif" font-size="15" fill="#52606d">Trace events</text>
  <text x="104" y="218" font-family="Segoe UI, Arial, sans-serif" font-size="34" font-weight="700" fill="#0b5cad">97</text>

  <rect x="292" y="150" width="190" height="88" rx="8" fill="#f0fbf5" stroke="#b7e4c7"/>
  <text x="314" y="183" font-family="Segoe UI, Arial, sans-serif" font-size="15" fill="#52606d">Evidence-backed</text>
  <text x="314" y="218" font-family="Segoe UI, Arial, sans-serif" font-size="34" font-weight="700" fill="#147d4c">11</text>

  <rect x="502" y="150" width="190" height="88" rx="8" fill="#fff8e8" stroke="#f1d48a"/>
  <text x="524" y="183" font-family="Segoe UI, Arial, sans-serif" font-size="15" fill="#52606d">Tool calls</text>
  <text x="524" y="218" font-family="Segoe UI, Arial, sans-serif" font-size="34" font-weight="700" fill="#9a6500">13</text>

  <rect x="712" y="150" width="190" height="88" rx="8" fill="#f5f1ff" stroke="#c7b8ff"/>
  <text x="734" y="183" font-family="Segoe UI, Arial, sans-serif" font-size="15" fill="#52606d">Official fetches</text>
  <text x="734" y="218" font-family="Segoe UI, Arial, sans-serif" font-size="34" font-weight="700" fill="#6c47d9">2</text>

  <rect x="922" y="150" width="190" height="88" rx="8" fill="#f0fbf5" stroke="#b7e4c7"/>
  <text x="944" y="183" font-family="Segoe UI, Arial, sans-serif" font-size="15" fill="#52606d">Wiki ingest</text>
  <text x="944" y="218" font-family="Segoe UI, Arial, sans-serif" font-size="34" font-weight="700" fill="#147d4c">8</text>

  <text x="82" y="294" font-family="Segoe UI, Arial, sans-serif" font-size="22" font-weight="700" fill="#172033">Official Evidence Auto-Fetch</text>
  <text x="82" y="322" font-family="Segoe UI, Arial, sans-serif" font-size="15" fill="#5f6b7a">The loop upgrades official search hits into page-grounded official document evidence.</text>

  <line x1="186" y1="390" x2="346" y2="390" stroke="#8a96a8" stroke-width="3"/>
  <line x1="520" y1="390" x2="680" y2="390" stroke="#8a96a8" stroke-width="3"/>
  <line x1="854" y1="390" x2="1014" y2="390" stroke="#8a96a8" stroke-width="3"/>
  <polygon points="342,383 358,390 342,397" fill="#8a96a8"/>
  <polygon points="676,383 692,390 676,397" fill="#8a96a8"/>
  <polygon points="1010,383 1026,390 1010,397" fill="#8a96a8"/>

  <rect x="82" y="354" width="126" height="72" rx="8" fill="#243b53"/>
  <text x="104" y="383" font-family="Segoe UI, Arial, sans-serif" font-size="15" font-weight="700" fill="#ffffff">Official</text>
  <text x="104" y="405" font-family="Segoe UI, Arial, sans-serif" font-size="15" font-weight="700" fill="#ffffff">Search</text>

  <rect x="360" y="354" width="170" height="72" rx="8" fill="#f5f1ff" stroke="#c7b8ff"/>
  <text x="386" y="383" font-family="Segoe UI, Arial, sans-serif" font-size="15" font-weight="700" fill="#17324d">Auto Fetch</text>
  <text x="386" y="405" font-family="Segoe UI, Arial, sans-serif" font-size="14" fill="#52606d">top official URL</text>

  <rect x="694" y="354" width="170" height="72" rx="8" fill="#eef6ff" stroke="#bfd7ff"/>
  <text x="722" y="383" font-family="Segoe UI, Arial, sans-serif" font-size="15" font-weight="700" fill="#17324d">Official Doc</text>
  <text x="722" y="405" font-family="Segoe UI, Arial, sans-serif" font-size="14" fill="#52606d">snippets + support</text>

  <rect x="1028" y="354" width="106" height="72" rx="8" fill="#f0fbf5" stroke="#b7e4c7"/>
  <text x="1050" y="383" font-family="Segoe UI, Arial, sans-serif" font-size="15" font-weight="700" fill="#17324d">Evidence</text>
  <text x="1050" y="405" font-family="Segoe UI, Arial, sans-serif" font-size="14" fill="#52606d">Store</text>

  <text x="82" y="502" font-family="Segoe UI, Arial, sans-serif" font-size="22" font-weight="700" fill="#172033">Tool Calls</text>
  <rect x="82" y="532" width="1024" height="22" rx="11" fill="#edf1f7"/>
  <rect x="82" y="532" width="430" height="22" rx="11" fill="#5b8def"/>
  <rect x="512" y="532" width="122" height="22" rx="11" fill="#7c5cff"/>
  <rect x="634" y="532" width="122" height="22" rx="11" fill="#22a06b"/>
  <rect x="756" y="532" width="122" height="22" rx="11" fill="#f59f00"/>
  <rect x="878" y="532" width="228" height="22" rx="11" fill="#cbd5e1"/>

  <text x="82" y="590" font-family="Segoe UI, Arial, sans-serif" font-size="15" fill="#52606d">official_source_search: 7</text>
  <text x="278" y="590" font-family="Segoe UI, Arial, sans-serif" font-size="15" fill="#52606d">official_doc_fetcher: 2</text>
  <text x="478" y="590" font-family="Segoe UI, Arial, sans-serif" font-size="15" fill="#52606d">paper_search: 2</text>
  <text x="626" y="590" font-family="Segoe UI, Arial, sans-serif" font-size="15" fill="#52606d">web_search: 2</text>

  <text x="82" y="636" font-family="Segoe UI, Arial, sans-serif" font-size="14" fill="#778395">Run: outputs/official_auto_fetch_geo_01</text>
</svg>
