<svg xmlns="http://www.w3.org/2000/svg" width="1200" height="720" viewBox="0 0 1200 720" role="img" aria-label="Trace report preview">
  <rect width="1200" height="720" fill="#f6f8fb"/>
  <rect x="48" y="38" width="1104" height="644" rx="18" fill="#ffffff" stroke="#d8dee9"/>
  <text x="82" y="86" font-family="Segoe UI, Arial, sans-serif" font-size="30" font-weight="700" fill="#172033">DeepResearch Trace Report</text>
  <text x="82" y="118" font-family="Segoe UI, Arial, sans-serif" font-size="16" fill="#5f6b7a">One run, visible through task DAG, tool calls, evidence levels, token usage and wiki ingest events.</text>

  <rect x="82" y="148" width="230" height="94" rx="10" fill="#eef6ff" stroke="#bfd7ff"/>
  <text x="104" y="184" font-family="Segoe UI, Arial, sans-serif" font-size="16" fill="#52606d">Events</text>
  <text x="104" y="219" font-family="Segoe UI, Arial, sans-serif" font-size="34" font-weight="700" fill="#0b5cad">95</text>

  <rect x="334" y="148" width="230" height="94" rx="10" fill="#f0fbf5" stroke="#b7e4c7"/>
  <text x="356" y="184" font-family="Segoe UI, Arial, sans-serif" font-size="16" fill="#52606d">Evidence-backed</text>
  <text x="356" y="219" font-family="Segoe UI, Arial, sans-serif" font-size="34" font-weight="700" fill="#147d4c">12</text>

  <rect x="586" y="148" width="230" height="94" rx="10" fill="#fff8e8" stroke="#f1d48a"/>
  <text x="608" y="184" font-family="Segoe UI, Arial, sans-serif" font-size="16" fill="#52606d">Tool calls</text>
  <text x="608" y="219" font-family="Segoe UI, Arial, sans-serif" font-size="34" font-weight="700" fill="#9a6500">12</text>

  <rect x="838" y="148" width="230" height="94" rx="10" fill="#fff1f1" stroke="#f3b4b4"/>
  <text x="860" y="184" font-family="Segoe UI, Arial, sans-serif" font-size="16" fill="#52606d">Rejected</text>
  <text x="860" y="219" font-family="Segoe UI, Arial, sans-serif" font-size="34" font-weight="700" fill="#b42318">1</text>

  <text x="82" y="290" font-family="Segoe UI, Arial, sans-serif" font-size="22" font-weight="700" fill="#172033">Task DAG</text>
  <line x1="166" y1="358" x2="300" y2="358" stroke="#8a96a8" stroke-width="3"/>
  <line x1="300" y1="358" x2="434" y2="300" stroke="#8a96a8" stroke-width="3"/>
  <line x1="300" y1="358" x2="434" y2="416" stroke="#8a96a8" stroke-width="3"/>
  <line x1="598" y1="300" x2="724" y2="358" stroke="#8a96a8" stroke-width="3"/>
  <line x1="598" y1="416" x2="724" y2="358" stroke="#8a96a8" stroke-width="3"/>
  <line x1="888" y1="358" x2="1014" y2="358" stroke="#8a96a8" stroke-width="3"/>

  <rect x="82" y="324" width="124" height="72" rx="10" fill="#243b53"/>
  <text x="112" y="365" font-family="Segoe UI, Arial, sans-serif" font-size="16" font-weight="700" fill="#ffffff">Plan</text>
  <rect x="434" y="264" width="164" height="72" rx="10" fill="#e9f5ff" stroke="#9cc9f5"/>
  <text x="468" y="305" font-family="Segoe UI, Arial, sans-serif" font-size="15" font-weight="700" fill="#17324d">Data Search</text>
  <rect x="434" y="380" width="164" height="72" rx="10" fill="#eafaf0" stroke="#a5d6b1"/>
  <text x="462" y="421" font-family="Segoe UI, Arial, sans-serif" font-size="15" font-weight="700" fill="#17324d">Method Check</text>
  <rect x="724" y="324" width="164" height="72" rx="10" fill="#fff7e6" stroke="#e8c878"/>
  <text x="755" y="365" font-family="Segoe UI, Arial, sans-serif" font-size="15" font-weight="700" fill="#17324d">Synthesis</text>
  <rect x="1014" y="324" width="92" height="72" rx="10" fill="#f0ecff" stroke="#c7b8ff"/>
  <text x="1032" y="365" font-family="Segoe UI, Arial, sans-serif" font-size="15" font-weight="700" fill="#17324d">Wiki</text>

  <text x="82" y="506" font-family="Segoe UI, Arial, sans-serif" font-size="22" font-weight="700" fill="#172033">Tool Timeline</text>
  <rect x="82" y="536" width="1024" height="18" rx="9" fill="#edf1f7"/>
  <rect x="82" y="536" width="210" height="18" rx="9" fill="#5b8def"/>
  <rect x="310" y="536" width="240" height="18" rx="9" fill="#22a06b"/>
  <rect x="568" y="536" width="150" height="18" rx="9" fill="#f59f00"/>
  <rect x="736" y="536" width="270" height="18" rx="9" fill="#7c5cff"/>
  <text x="82" y="588" font-family="Segoe UI, Arial, sans-serif" font-size="15" fill="#52606d">web_search</text>
  <text x="210" y="588" font-family="Segoe UI, Arial, sans-serif" font-size="15" fill="#52606d">paper_search</text>
  <text x="352" y="588" font-family="Segoe UI, Arial, sans-serif" font-size="15" fill="#52606d">official_source_search</text>
  <text x="578" y="588" font-family="Segoe UI, Arial, sans-serif" font-size="15" fill="#52606d">wiki_ingest</text>
</svg>
